<?xml version="1.0" standalone="no"?>
<!DOCTYPE svg PUBLIC "-//W3C//DTD SVG 20010904//EN"
 "http://www.w3.org/TR/2001/REC-SVG-20010904/DTD/svg10.dtd">
<svg version="1.0" xmlns="http://www.w3.org/2000/svg"
 width="134.000000pt" height="80.000000pt" viewBox="0 0 134.000000 80.000000"
 preserveAspectRatio="xMidYMid meet">

<g transform="translate(0.000000,80.000000) scale(0.100000,-0.100000)"
fill="#5865f2" stroke="none">
<path d="M105 785 c-49 -18 -81 -53 -95 -106 -7 -26 -10 -134 -8 -302 3 -242
5 -265 23 -297 12 -19 36 -43 55 -55 34 -19 50 -20 590 -20 540 0 556 1 590
20 19 12 43 36 55 55 19 33 20 51 20 320 0 269 -1 287 -20 320 -12 19 -36 43
-55 55 -34 19 -52 20 -575 22 -448 2 -547 0 -580 -12z m317 -244 c32 -36 36
-75 12 -109 -15 -22 -15 -25 4 -45 30 -32 36 -69 18 -111 -20 -48 -63 -66
-156 -66 l-70 0 0 186 0 187 82 -5 c76 -5 83 -7 110 -37z m329 16 c47 -31 79
-98 79 -164 0 -68 -18 -110 -63 -150 -82 -72 -209 -48 -258 48 -17 35 -20 55
-17 115 4 81 20 112 78 152 46 31 134 31 181 -1z m379 16 c0 -5 3 -18 6 -30 6
-22 4 -23 -55 -23 l-61 0 0 -156 0 -155 -32 3 -33 3 -3 153 -3 152 -50 0 c-51
0 -68 13 -55 45 4 12 30 15 146 15 77 0 140 -3 140 -7z"/>
<path d="M300 475 c0 -43 1 -45 28 -45 33 0 52 16 52 45 0 29 -19 45 -52 45
-27 0 -28 -2 -28 -45z"/>
<path d="M300 315 c0 -60 9 -66 63 -46 58 22 36 101 -28 101 l-35 0 0 -55z"/>
<path d="M623 520 c-37 -15 -63 -68 -63 -130 0 -82 37 -129 101 -130 78 0 124
110 85 205 -14 32 -60 66 -88 64 -7 0 -23 -4 -35 -9z"/>
</g>
</svg>
