<?xml version="1.0" standalone="no"?>
<!DOCTYPE svg PUBLIC "-//W3C//DTD SVG 20010904//EN"
 "http://www.w3.org/TR/2001/REC-SVG-20010904/DTD/svg10.dtd">
<svg version="1.0" xmlns="http://www.w3.org/2000/svg"
 width="193.000000pt" height="80.000000pt" viewBox="0 0 193.000000 80.000000"
 preserveAspectRatio="xMidYMid meet">

<g transform="translate(0.000000,80.000000) scale(0.100000,-0.100000)"
fill="#5865f2" stroke="none">
<path d="M105 785 c-49 -18 -81 -53 -95 -106 -7 -26 -10 -134 -8 -302 3 -242
5 -265 23 -297 12 -19 36 -43 55 -55 34 -20 48 -20 885 -20 837 0 851 0 885
20 19 12 43 36 55 55 19 33 20 51 20 320 0 269 -1 287 -20 320 -12 19 -36 43
-55 55 -34 20 -50 20 -870 22 -702 2 -841 0 -875 -12z m479 -239 c11 -9 15
-20 10 -28 -6 -10 -204 -276 -220 -297 -3 -3 -140 95 -168 120 -5 5 3 23 18
44 l28 36 43 -36 c24 -19 47 -35 52 -35 5 0 31 30 58 67 27 36 66 88 87 115
41 51 44 51 92 14z m389 23 c21 -6 44 -21 54 -36 21 -32 22 -88 1 -109 -14
-14 -13 -18 8 -39 35 -35 33 -95 -5 -137 -28 -32 -32 -33 -120 -36 l-91 -4 0
179 c0 99 3 183 7 186 10 11 104 8 146 -4z m363 -5 c111 -53 120 -261 15 -331
-132 -88 -285 16 -268 183 7 67 41 124 88 147 44 21 121 22 165 1z m392 -16
c3 -28 2 -28 -52 -28 l-56 0 0 -155 0 -155 -35 0 -35 0 0 155 0 155 -55 0
c-55 0 -55 0 -55 30 l0 31 143 -3 142 -3 3 -27z"/>
<path d="M890 475 c0 -43 1 -45 30 -45 39 0 67 38 50 69 -8 15 -21 21 -45 21
-35 0 -35 0 -35 -45z"/>
<path d="M890 315 c0 -53 1 -55 28 -55 41 0 72 26 72 60 0 34 -23 50 -69 50
-31 0 -31 0 -31 -55z"/>
<path d="M1208 515 c-16 -9 -33 -32 -43 -59 -36 -95 10 -196 90 -196 100 0
138 168 55 243 -34 30 -62 33 -102 12z"/>
</g>
</svg>
